<?xml version="1.0" encoding="UTF-8" standalone="no"?>
<svg width="32" height="32" viewBox="0 0 32 32" fill="none" xmlns="http://www.w3.org/2000/svg">
  <!-- Background with gradient -->
  <defs>
    <linearGradient id="bg" x1="0%" y1="0%" x2="100%" y2="100%">
      <stop offset="0%" style="stop-color:#FF6B35;stop-opacity:1" />
      <stop offset="50%" style="stop-color:#F7931E;stop-opacity:1" />
      <stop offset="100%" style="stop-color:#FFD23F;stop-opacity:1" />
    </linearGradient>
    <linearGradient id="velocity" x1="0%" y1="0%" x2="100%" y2="0%">
      <stop offset="0%" style="stop-color:#FFFFFF;stop-opacity:0.3" />
      <stop offset="50%" style="stop-color:#FFFFFF;stop-opacity:1" />
      <stop offset="100%" style="stop-color:#FFFFFF;stop-opacity:0.3" />
    </linearGradient>
    <filter id="glow">
      <feGaussianBlur stdDeviation="1" result="coloredBlur"/>
      <feMerge> 
        <feMergeNode in="coloredBlur"/>
        <feMergeNode in="SourceGraphic"/>
      </feMerge>
    </filter>
  </defs>
  
  <!-- Modern hexagonal background -->
  <polygon points="8,4 24,4 30,16 24,28 8,28 2,16" fill="url(#bg)" stroke="#E55100" stroke-width="1"/>
  
  <!-- Central "V" with modern typography -->
  <path d="M10 10 L16 22 L22 10" stroke="#FFFFFF" stroke-width="3" stroke-linecap="round" stroke-linejoin="round" fill="none" filter="url(#glow)"/>
  
  <!-- Speed lines with animation effect -->
  <rect x="6" y="15" width="8" height="1.5" fill="url(#velocity)" rx="0.75"/>
  <rect x="6" y="17" width="12" height="1.5" fill="url(#velocity)" rx="0.75"/>
  <rect x="6" y="19" width="6" height="1.5" fill="url(#velocity)" rx="0.75"/>
  
  <!-- Modern dots for tech feel -->
  <circle cx="24" cy="8" r="1.5" fill="#FFFFFF" opacity="0.8"/>
  <circle cx="26" cy="12" r="1" fill="#FFFFFF" opacity="0.6"/>
  <circle cx="24" cy="24" r="1.5" fill="#FFFFFF" opacity="0.8"/>
  
  <!-- Flux indicator -->
  <path d="M18 8 Q20 10 18 12 Q20 14 18 16" stroke="#FFFFFF" stroke-width="2" stroke-linecap="round" fill="none" opacity="0.7"/>
</svg>
