<?xml version="1.0" encoding="UTF-8" standalone="no"?>
<svg width="32" height="32" viewBox="0 0 32 32" fill="none" xmlns="http://www.w3.org/2000/svg">
  <defs>
    <radialGradient id="cyber" cx="50%" cy="50%" r="50%">
      <stop offset="0%" style="stop-color:#00D4FF;stop-opacity:1" />
      <stop offset="70%" style="stop-color:#0099CC;stop-opacity:1" />
      <stop offset="100%" style="stop-color:#003D52;stop-opacity:1" />
    </radialGradient>
    <linearGradient id="neon" x1="0%" y1="0%" x2="100%" y2="100%">
      <stop offset="0%" style="stop-color:#00FFFF;stop-opacity:1" />
      <stop offset="100%" style="stop-color:#FF00FF;stop-opacity:1" />
    </linearGradient>
    <filter id="neonGlow">
      <feGaussianBlur stdDeviation="2" result="coloredBlur"/>
      <feMerge> 
        <feMergeNode in="coloredBlur"/>
        <feMergeNode in="SourceGraphic"/>
      </feMerge>
    </filter>
  </defs>
  
  <!-- Cyber background circle -->
  <circle cx="16" cy="16" r="15" fill="url(#cyber)" stroke="#00FFFF" stroke-width="1"/>
  
  <!-- Digital V with circuit pattern -->
  <path d="M9 8 L16 24 L23 8" stroke="url(#neon)" stroke-width="2.5" stroke-linecap="square" fill="none" filter="url(#neonGlow)"/>
  
  <!-- Circuit-like connections -->
  <path d="M6 12 L10 12 L12 10 L16 10" stroke="#00FFFF" stroke-width="1.5" fill="none" opacity="0.8"/>
  <path d="M26 12 L22 12 L20 10 L16 10" stroke="#00FFFF" stroke-width="1.5" fill="none" opacity="0.8"/>
  <path d="M6 20 L10 20 L12 22 L16 22" stroke="#00FFFF" stroke-width="1.5" fill="none" opacity="0.8"/>
  <path d="M26 20 L22 20 L20 22 L16 22" stroke="#00FFFF" stroke-width="1.5" fill="none" opacity="0.8"/>
  
  <!-- Digital nodes -->
  <rect x="9" y="11" width="2" height="2" fill="#00FFFF" rx="1"/>
  <rect x="21" y="11" width="2" height="2" fill="#00FFFF" rx="1"/>
  <rect x="9" y="19" width="2" height="2" fill="#00FFFF" rx="1"/>
  <rect x="21" y="19" width="2" height="2" fill="#00FFFF" rx="1"/>
  
  <!-- Central flux core -->
  <circle cx="16" cy="16" r="2" fill="none" stroke="#FF00FF" stroke-width="1.5" opacity="0.8"/>
  <circle cx="16" cy="16" r="1" fill="#FFFFFF"/>
</svg>
